<?xml version="1.0" encoding="utf-8"?>
<!-- Generator: Adobe Illustrator 17.0.0, SVG Export Plug-In . SVG Version: 6.00 Build 0)  -->
<!DOCTYPE svg PUBLIC "-//W3C//DTD SVG 1.1//EN" "http://www.w3.org/Graphics/SVG/1.1/DTD/svg11.dtd">
<svg version="1.1" id="Layer_1" xmlns="http://www.w3.org/2000/svg" xmlns:xlink="http://www.w3.org/1999/xlink" x="0px" y="0px"
	 width="511px" height="511px" viewBox="0 0 511 511" enable-background="new 0 0 511 511" xml:space="preserve">
<path fill="#FE9900" d="M477.521,421.208H32.916c-14.051,0-25.439-11.388-25.439-25.435V33.913
	c0-14.051,11.388-25.439,25.439-25.439h444.604c14.047,0,25.435,11.388,25.435,25.439v361.86
	C502.955,409.82,491.567,421.208,477.521,421.208z"/>
<path fill="#FE7600" d="M502.959,33.913v361.86c0,14.047-11.388,25.435-25.435,25.435h-31.072c14.051,0,25.435-11.388,25.435-25.435
	V33.913c0-14.047-11.384-25.435-25.435-25.435h31.072C491.571,8.479,502.959,19.866,502.959,33.913z"/>
<path fill="#F2F2F2" d="M502.955,359.925H7.478v35.848c0,14.047,11.388,25.435,25.439,25.435h444.604
	c14.047,0,25.435-11.388,25.435-25.435V359.925z"/>
<path fill="#CECECE" d="M502.959,359.925v35.848c0,14.047-11.388,25.435-25.435,25.435h-31.072
	c14.051,0,25.435-11.388,25.435-25.435v-35.848H502.959z"/>
<path fill="#F2F2F2" d="M503.524,95.247H8.031V33.909c0-14.047,11.388-25.435,25.435-25.435H478.09
	c14.047,0,25.435,11.388,25.435,25.435V95.247z"/>
<path fill="#CECECE" d="M503.528,33.905V95.25h-31.641V33.905c0-14.039-11.384-25.427-25.435-25.427h31.637
	C492.14,8.479,503.528,19.866,503.528,33.905z"/>
<path fill="#CECECE" d="M185.914,421.208h138.604v41.778H185.914V421.208z"/>
<path fill="#F2F2F2" d="M369.431,503.968H141.002c-2.752,0-4.986-2.234-4.986-4.986v-16.156c0-10.955,8.885-19.84,19.84-19.84
	h198.725c10.955,0,19.836,8.885,19.836,19.84v16.156C374.417,501.738,372.187,503.968,369.431,503.968z"/>
<path fill="#CECECE" d="M374.417,482.822v16.164c0,2.752-2.234,4.986-4.986,4.986h-17.598v-21.15
	c0-10.947-8.885-19.832-19.832-19.832h22.585C365.536,462.989,374.417,471.87,374.417,482.822z"/>
<path fill="#CECECE" d="M294.901,275.574h161.942v30.694H294.901V275.574z"/>
<path fill="#CECECE" d="M294.901,357.075h161.942v30.698H294.901V357.075z"/>
<path fill="#F2F2F2" d="M437.696,275.574h19.146v30.694h-19.146V275.574z"/>
<path fill="#F2F2F2" d="M437.696,357.075h19.146v30.698h-19.146V357.075z"/>
<g>
	<path fill="#F2F2F2" d="M470.253,275.574h-188.76c-3.992,0-7.232-3.236-7.232-7.228v-36.347c0-3.992,3.24-7.232,7.232-7.232h188.76
		c3.992,0,7.232,3.24,7.232,7.232v36.347C477.485,272.338,474.246,275.574,470.253,275.574z"/>
	<path fill="#F2F2F2" d="M470.253,357.075h-188.76c-3.992,0-7.232-3.236-7.232-7.228V313.5c0-3.992,3.24-7.232,7.232-7.232h188.76
		c3.992,0,7.232,3.24,7.232,7.232v36.347C477.485,353.839,474.246,357.075,470.253,357.075z"/>
	<path fill="#F2F2F2" d="M470.253,438.576h-188.76c-3.992,0-7.232-3.236-7.232-7.228v-36.347c0-3.996,3.24-7.232,7.232-7.232h188.76
		c3.992,0,7.232,3.236,7.232,7.232v36.347C477.485,435.34,474.246,438.576,470.253,438.576z"/>
</g>
<path fill="#CECECE" d="M477.482,231.999v36.347c0,3.988-3.228,7.228-7.228,7.228h-16.772c4,0,7.228-3.24,7.228-7.228v-36.347
	c0-3.988-3.228-7.228-7.228-7.228h16.772C474.253,224.771,477.482,228.011,477.482,231.999z"/>
<path fill="#CECECE" d="M477.482,313.496v36.347c0,3.996-3.228,7.228-7.228,7.228h-16.772c4,0,7.228-3.232,7.228-7.228v-36.347
	c0-3.988-3.228-7.228-7.228-7.228h16.772C474.253,306.268,477.482,309.508,477.482,313.496z"/>
<path fill="#CECECE" d="M477.482,395.005v36.343c0,3.988-3.228,7.232-7.228,7.232h-16.772c4,0,7.228-3.244,7.228-7.232v-36.343
	c0-4-3.228-7.232-7.228-7.232h16.772C474.253,387.773,477.482,391.005,477.482,395.005z"/>
<path fill="#FE9900" d="M69.622,51.648c0,7.992-6.476,14.472-14.468,14.472s-14.468-6.48-14.468-14.472
	c0-7.988,6.476-14.468,14.468-14.468S69.622,43.66,69.622,51.648z"/>
<path fill="#FE7600" d="M125.501,51.648c0,7.992-6.48,14.472-14.468,14.472c-7.992,0-14.472-6.48-14.472-14.472
	c0-7.988,6.48-14.468,14.472-14.468C119.021,37.18,125.501,43.66,125.501,51.648z"/>
<path fill="#FF5400" d="M181.376,51.648c0,7.992-6.476,14.472-14.468,14.472c-7.988,0-14.468-6.48-14.468-14.472
	c0-7.988,6.48-14.468,14.468-14.468C174.901,37.18,181.376,43.66,181.376,51.648z"/>
<path fill="#FE7600" d="M69.618,51.656c0,7.984-6.472,14.456-14.46,14.456c-3.867,0-7.388-1.517-9.981-3.996
	c7.828-0.172,14.129-6.573,14.129-14.448c0-4.129-1.723-7.84-4.487-10.472c0.113-0.012,0.23-0.012,0.339-0.012
	C63.146,37.184,69.618,43.656,69.618,51.656z"/>
<path fill="#FF5400" d="M125.497,51.656c0,7.984-6.472,14.456-14.468,14.456c-3.867,0-7.38-1.517-9.981-3.996
	c7.836-0.172,14.14-6.573,14.14-14.448c0-4.129-1.727-7.84-4.487-10.472c0.109-0.012,0.218-0.012,0.327-0.012
	C119.025,37.184,125.497,43.656,125.497,51.656z"/>
<path fill="#FE9900" d="M181.38,51.656c0,7.984-6.483,14.456-14.472,14.456c-3.867,0-7.376-1.517-9.98-3.996
	c7.84-0.172,14.129-6.573,14.129-14.448c0-4.129-1.723-7.84-4.487-10.472c0.113-0.012,0.23-0.012,0.339-0.012
	C174.897,37.184,181.38,43.656,181.38,51.656z"/>
<path d="M58.846,187.18c1.458,1.458,3.372,2.191,5.287,2.191s3.828-0.729,5.29-2.191c2.92-2.92,2.92-7.657,0-10.577l-18.16-18.16
	l18.16-18.156c2.92-2.924,2.92-7.657,0-10.577c-2.92-2.92-7.657-2.92-10.577,0L35.4,153.157c-1.404,1.404-2.191,3.306-2.191,5.287
	c0,1.984,0.788,3.887,2.191,5.29L58.846,187.18z"/>
<path d="M133.06,158.443l-18.16,18.16c-2.92,2.92-2.92,7.657,0.004,10.577c1.458,1.458,3.372,2.191,5.287,2.191
	s3.828-0.733,5.287-2.191l23.45-23.45c2.92-2.92,2.92-7.657,0-10.573l-23.45-23.45c-2.92-2.92-7.653-2.92-10.573,0
	c-2.924,2.924-2.924,7.657,0,10.577L133.06,158.443z"/>
<path d="M81.014,188.853c0.897,0.351,1.825,0.519,2.733,0.519c2.986,0,5.805-1.801,6.963-4.745l18.421-46.897
	c1.513-3.844-0.382-8.183-4.226-9.696c-3.84-1.509-8.183,0.382-9.692,4.226l-18.425,46.897
	C75.279,183.001,77.17,187.344,81.014,188.853z"/>
<path d="M44.92,233.247h50.382c4.129,0,7.478-3.349,7.478-7.481c0-4.129-3.349-7.478-7.478-7.478H44.92
	c-4.133,0-7.478,3.349-7.478,7.478C37.443,229.898,40.788,233.247,44.92,233.247z"/>
<path d="M211.341,218.288h-88.577c-4.129,0-7.478,3.349-7.478,7.478c0,4.133,3.349,7.481,7.478,7.481h88.577
	c4.133,0,7.481-3.349,7.481-7.481C218.823,221.636,215.474,218.288,211.341,218.288z"/>
<path d="M44.92,264.79h21.462c4.129,0,7.478-3.349,7.478-7.481c0-4.129-3.349-7.478-7.478-7.478H44.92
	c-4.133,0-7.478,3.349-7.478,7.478C37.443,261.442,40.788,264.79,44.92,264.79z"/>
<path d="M183.981,249.831c-4.133,0-7.478,3.349-7.478,7.478c0,4.133,3.345,7.481,7.478,7.481h13.068
	c4.133,0,7.481-3.349,7.481-7.481c0-4.129-3.349-7.478-7.481-7.478H183.981z"/>
<path d="M164.296,257.309c0-4.129-3.349-7.478-7.478-7.478H92.624c-4.133,0-7.478,3.349-7.478,7.478
	c0,4.133,3.345,7.481,7.478,7.481h64.195C160.947,264.79,164.296,261.442,164.296,257.309z"/>
<path d="M213.287,257.309c0,4.133,3.349,7.481,7.478,7.481h24.48c4.133,0,7.481-3.349,7.481-7.481c0-4.129-3.349-7.478-7.481-7.478
	h-24.48C216.635,249.831,213.287,253.18,213.287,257.309z"/>
<path d="M172.558,164.443h25.821c4.133,0,7.481-3.349,7.481-7.481c0-4.129-3.349-7.478-7.481-7.478h-25.821
	c-4.133,0-7.481,3.349-7.481,7.478C165.076,161.095,168.425,164.443,172.558,164.443z"/>
<path d="M227.298,164.443h157.548c4.133,0,7.478-3.349,7.478-7.481c0-4.129-3.345-7.478-7.478-7.478H227.298
	c-4.133,0-7.481,3.349-7.481,7.478C219.817,161.095,223.166,164.443,227.298,164.443z"/>
<path d="M360.916,182.389h-63.821c-4.129,0-7.478,3.349-7.478,7.481c0,4.129,3.349,7.478,7.478,7.478h63.821
	c4.129,0,7.478-3.349,7.478-7.478C368.394,185.738,365.045,182.389,360.916,182.389z"/>
<path d="M273.166,182.389h-21.938c-4.133,0-7.478,3.349-7.478,7.481c0,4.129,3.345,7.478,7.478,7.478h21.938
	c4.133,0,7.478-3.349,7.478-7.478C280.643,185.738,277.298,182.389,273.166,182.389z"/>
<path d="M172.558,197.348H226.3c4.129,0,7.478-3.349,7.478-7.478c0-4.133-3.349-7.481-7.478-7.481h-53.743
	c-4.133,0-7.481,3.349-7.481,7.481C165.076,193.999,168.425,197.348,172.558,197.348z"/>
<path d="M156.912,281.11h-50.378c-4.133,0-7.481,3.349-7.481,7.478c0,4.129,3.349,7.478,7.481,7.478h50.378
	c4.129,0,7.478-3.349,7.478-7.478C164.39,284.459,161.041,281.11,156.912,281.11z"/>
<path d="M83.626,281.11H44.92c-4.133,0-7.478,3.349-7.478,7.478c0,4.129,3.345,7.478,7.478,7.478h38.706
	c4.133,0,7.478-3.349,7.478-7.478C91.103,284.459,87.758,281.11,83.626,281.11z"/>
<path d="M248.238,281.11h-65.813c-4.133,0-7.478,3.349-7.478,7.478c0,4.129,3.345,7.478,7.478,7.478h65.813
	c4.129,0,7.478-3.349,7.478-7.478C255.715,284.459,252.367,281.11,248.238,281.11z"/>
<path d="M337.24,242.693h-35.988c-4.129,0-7.478,3.349-7.478,7.478c0,4.133,3.349,7.481,7.478,7.481h35.988
	c4.133,0,7.478-3.349,7.478-7.481C344.717,246.042,341.372,242.693,337.24,242.693z"/>
<path d="M399.688,257.652h50.803c4.133,0,7.482-3.349,7.482-7.481c0-4.129-3.349-7.478-7.482-7.478h-50.803
	c-4.133,0-7.478,3.349-7.478,7.478C392.211,254.303,395.56,257.652,399.688,257.652z"/>
<path d="M374.285,242.693h-11.641c-4.133,0-7.481,3.349-7.481,7.478c0,4.133,3.349,7.481,7.481,7.481h11.641
	c4.133,0,7.478-3.349,7.478-7.481C381.762,246.042,378.417,242.693,374.285,242.693z"/>
<path d="M301.251,339.149h35.988c4.133,0,7.478-3.345,7.478-7.478c0-4.129-3.345-7.478-7.478-7.478h-35.988
	c-4.129,0-7.478,3.349-7.478,7.478C293.774,335.804,297.123,339.149,301.251,339.149z"/>
<path d="M399.688,339.149h50.803c4.133,0,7.482-3.345,7.482-7.478c0-4.129-3.349-7.478-7.482-7.478h-50.803
	c-4.133,0-7.478,3.349-7.478,7.478C392.211,335.804,395.56,339.149,399.688,339.149z"/>
<path d="M362.643,339.149h11.641c4.133,0,7.482-3.345,7.482-7.478c0-4.129-3.349-7.478-7.482-7.478h-11.641
	c-4.133,0-7.478,3.349-7.478,7.478C355.166,335.804,358.511,339.149,362.643,339.149z"/>
<path d="M337.24,405.695h-35.988c-4.129,0-7.478,3.349-7.478,7.478c0,4.129,3.349,7.478,7.478,7.478h35.988
	c4.133,0,7.478-3.349,7.478-7.478C344.717,409.044,341.372,405.695,337.24,405.695z"/>
<path d="M450.491,405.695h-50.803c-4.133,0-7.478,3.349-7.478,7.478c0,4.129,3.345,7.478,7.478,7.478h50.803
	c4.133,0,7.482-3.349,7.482-7.478C457.973,409.044,454.624,405.695,450.491,405.695z"/>
<path d="M374.285,405.695h-11.641c-4.133,0-7.481,3.349-7.481,7.478c0,4.129,3.349,7.478,7.481,7.478h11.641
	c4.133,0,7.478-3.349,7.478-7.478C381.762,409.044,378.417,405.695,374.285,405.695z"/>
<path d="M478.09,0.997H32.916C14.768,0.997,0,15.761,0,33.913v361.86c0,18.148,14.768,32.912,32.916,32.912H61.06
	c4.129,0,7.478-3.345,7.478-7.478c0-4.129-3.349-7.478-7.478-7.478H32.916c-9.903,0-17.957-8.055-17.957-17.957v-28.37h272.464
	v12.889h-5.93c-8.113,0-14.71,6.596-14.71,14.71v18.729H106.53c-4.129,0-7.478,3.349-7.478,7.478c0,4.133,3.349,7.478,7.478,7.478
	h71.906v26.823h-22.581c-15.064,0-27.318,12.257-27.318,27.318v16.156c0,6.873,5.591,12.464,12.464,12.464h228.429
	c6.873,0,12.464-5.591,12.464-12.464v-16.156c0-15.06-12.253-27.318-27.318-27.318h-22.581v-9.454h138.257
	c8.109,0,14.706-6.596,14.706-14.71v-3.52c14.577-3.384,25.474-16.464,25.474-32.051l0.565-361.864
	C511.002,15.761,496.238,0.997,478.09,0.997z M281.743,349.597V313.75h188.261v35.848H281.743z M302.378,298.79v-15.735h146.986
	v15.735H302.378z M449.365,364.553v15.739H302.378v-15.739H449.365z M193.392,428.685h73.392v2.663
	c0,8.109,6.596,14.706,14.71,14.706h35.548v9.454H193.392V428.685z M354.581,470.467c6.815,0,12.359,5.544,12.359,12.359v13.665
	H143.493v-13.665c0-6.815,5.548-12.359,12.363-12.359H354.581z M470.004,431.095H281.743V395.25h188.261V431.095z M495.478,395.773
	c0,7.244-4.32,13.485-10.515,16.32v-17.096c0-8.109-6.6-14.706-14.71-14.706h-5.93v-12.889h31.154V395.773z M495.478,352.447h-10.76
	c0.152-0.846,0.246-38.947,0.246-38.947c0-8.113-6.6-14.71-14.71-14.71h-5.93v-15.735h5.93c8.109,0,14.71-6.6,14.71-14.71v-36.347
	c0-8.109-6.6-14.71-14.71-14.71h-42.242c-4.133,0-7.478,3.349-7.478,7.481c0,4.129,3.345,7.478,7.478,7.478h41.992v35.848H281.743
	v-35.848h99.735c4.133,0,7.478-3.349,7.478-7.478c0-4.133-3.345-7.481-7.478-7.481h-99.984c-8.113,0-14.71,6.6-14.71,14.71v36.347
	c0,8.109,6.596,14.71,14.71,14.71h5.93v15.735h-5.93c-8.113,0-14.71,6.6-14.71,14.71c0,0,0.094,38.101,0.246,38.947H14.959V102.728
	h480.519V352.447z M495.478,87.769H15.509v-53.86c0-9.899,8.055-17.953,17.957-17.953h444.055c9.903,0,17.957,8.055,17.957,17.957
	V87.769z"/>
<path d="M55.154,29.703c-12.101,0-21.945,9.844-21.945,21.945s9.844,21.949,21.945,21.949s21.949-9.848,21.949-21.949
	S67.255,29.703,55.154,29.703z M55.154,58.638c-3.852,0-6.99-3.135-6.99-6.99c0-3.852,3.138-6.99,6.99-6.99
	c3.856,0,6.99,3.138,6.99,6.99C62.144,55.504,59.01,58.638,55.154,58.638z"/>
<path d="M111.033,29.703c-12.101,0-21.949,9.844-21.949,21.945s9.848,21.949,21.949,21.949s21.945-9.848,21.945-21.949
	S123.131,29.703,111.033,29.703z M111.033,58.638c-3.856,0-6.99-3.135-6.99-6.99c0-3.852,3.134-6.99,6.99-6.99
	c3.852,0,6.99,3.138,6.99,6.99C118.023,55.504,114.885,58.638,111.033,58.638z"/>
<path d="M166.908,29.703c-12.101,0-21.945,9.844-21.945,21.945s9.844,21.949,21.945,21.949s21.949-9.848,21.949-21.949
	S179.01,29.703,166.908,29.703z M166.908,58.638c-3.852,0-6.99-3.135-6.99-6.99c0-3.852,3.138-6.99,6.99-6.99
	c3.856,0,6.99,3.138,6.99,6.99C173.899,55.504,170.764,58.638,166.908,58.638z"/>
</svg>
