<?xml version="1.0" encoding="utf-8"?>
<!-- Generator: Adobe Illustrator 17.0.0, SVG Export Plug-In . SVG Version: 6.00 Build 0)  -->
<!DOCTYPE svg PUBLIC "-//W3C//DTD SVG 1.1//EN" "http://www.w3.org/Graphics/SVG/1.1/DTD/svg11.dtd">
<svg version="1.1" id="Layer_1" xmlns="http://www.w3.org/2000/svg" xmlns:xlink="http://www.w3.org/1999/xlink" x="0px" y="0px"
	 width="527.244px" height="527.244px" viewBox="-15.622 -15.622 527.244 527.244"
	 enable-background="new -15.622 -15.622 527.244 527.244" xml:space="preserve">
<path fill="#FE9900" d="M336,248v-46.719c0-7.52-2.398-14.723-6.641-20.48c-4.238-5.84-10.16-10.402-17.359-12.801l-6.641-6.641
	l1.281-1.359L360,144c0,0,8,16,24,16s24-16,24-16l57.199,17.121C478.719,165.199,488,177.68,488,191.84V256h-56v-8
	c0-26.48-21.52-48-48-48c-13.281,0-25.281,5.359-33.922,14.078C341.359,222.719,336,234.719,336,248z"/>
<path fill="#FE9900" d="M160,220.879V248c0-13.281-5.359-25.281-14.078-33.922C137.281,205.359,125.281,200,112,200
	c-26.48,0-48,21.52-48,48v8H8v-64.16c0-14.16,9.281-26.641,22.801-30.719L88,144c0,0,8,16,24,16s24-16,24-16l50.641,15.199
	C170.238,174.641,160,196.559,160,220.879z"/>
<path fill="#FE7600" d="M440,448h-40c-8.801,0-16,7.199-16,16v-49.84c0-22.32-15.441-41.68-37.199-46.719l-49.922-11.52l-0.32-0.082
	c1.922-1.121,4.082-2,6.242-2.719L360,336c0,0,8,16,24,16s24-16,24-16l57.199,17.121C478.719,357.199,488,369.68,488,383.84V448H440
	z"/>
<path fill="#FE7600" d="M199.199,355.922l-50,11.52C127.441,372.48,112,391.84,112,414.16V464c0-8.801-7.199-16-16-16H8v-64.16
	c0-14.16,9.281-26.641,22.801-30.719L88,336c0,0,8,16,24,16s24-16,24-16l57.199,17.121c2.16,0.719,4.32,1.598,6.242,2.719
	L199.199,355.922z"/>
<path fill="#FF5400" d="M168,488h-56v-73.84c0-22.32,15.441-41.68,37.199-46.719l50-11.52L216,352h64l16.801,4.078l0.078-0.156
	l49.922,11.52C368.559,372.48,384,391.84,384,414.16V488H168z"/>
<path fill="#FE9900" d="M264,416l8,72h-48l8-72H264z"/>
<path fill="#FE9900" d="M272.719,390.801L272,392l-8,24h-32l-8-24l-0.719-1.199L248,376L272.719,390.801z"/>
<path fill="#CCD1D9" d="M296.559,355.84l0.32,0.082l-0.078,0.156L288,400l-15.281-9.199L248,376l32-24L296.559,355.84z"/>
<path fill="#CCD1D9" d="M199.441,355.84L216,352l32,24l-24.719,14.801L208,400l-8.801-44.078L199.441,355.84z"/>
<path fill="#CECECE" d="M432,56v8h-12.719c-7.203,0-14.16-2.879-19.281-8c-5.121,5.121-12.078,8-19.281,8H336v-8
	c0-13.281,5.359-25.281,14.078-33.922C358.719,13.359,370.719,8,384,8C410.48,8,432,29.52,432,56z"/>
<path fill="#CECECE" d="M160,64h-44.719c-7.203,0-14.16-2.879-19.281-8c-5.121,5.121-12.078,8-19.281,8H64v-8
	c0-26.48,21.52-48,48-48c13.281,0,25.281,5.359,33.922,14.078C154.641,30.719,160,42.719,160,56V64z"/>
<path fill="#F2F2F2" d="M360,121.52c7.039,4.16,15.281,6.48,24,6.48c8.801,0,16.961-2.32,24-6.48V144c0,0-8,16-24,16s-24-16-24-16
	V121.52z"/>
<path fill="#F2F2F2" d="M408,121.52c-7.039,4.16-15.199,6.48-24,6.48c-8.719,0-16.961-2.32-24-6.48c-14.32-8.238-24-23.758-24-41.52
	V64h44.719c7.203,0,14.16-2.879,19.281-8c5.121,5.121,12.078,8,19.281,8H432v16c0,13.281-5.359,25.281-14.078,33.922
	C414.961,116.879,411.68,119.441,408,121.52z"/>
<path fill="#F2F2F2" d="M88,121.52l24,6.48c8.801,0,16.961-2.32,24-6.48V144c0,0-8,16-24,16s-24-16-24-16V121.52z"/>
<path fill="#F2F2F2" d="M136,121.52c-7.039,4.16-15.199,6.48-24,6.48l-24-6.48c-3.68-2.078-6.961-4.641-9.922-7.598
	C69.359,105.281,64,93.281,64,80V64h12.719c7.203,0,14.16-2.879,19.281-8c5.121,5.121,12.078,8,19.281,8H160v16
	C160,97.762,150.32,113.281,136,121.52z"/>
<path fill="#CECECE" d="M368,248c-5.121,5.121-12.078,8-19.281,8H336v-8c0-13.281,5.359-25.281,14.078-33.922
	C358.719,205.359,370.719,200,384,200c26.48,0,48,21.52,48,48v8h-44.719C380.078,256,373.121,253.121,368,248z"/>
<path fill="#CECECE" d="M147.281,256c-7.203,0-14.16-2.879-19.281-8c-5.121,5.121-12.078,8-19.281,8H64v-8c0-26.48,21.52-48,48-48
	c13.281,0,25.281,5.359,33.922,14.078C154.641,222.719,160,234.719,160,248v8H147.281z"/>
<path fill="#CECECE" d="M186.641,159.199C201.84,144.801,222.32,136,244.879,136c11.281,0,22.242,2.238,32.48,6.48
	c10.16,4.238,19.602,10.48,27.52,18.398L312,168c7.199,2.398,13.121,6.961,17.359,12.801c4.242,5.758,6.641,12.961,6.641,20.48V264
	c0-1.039-0.078-2.078-0.16-3.121c-1.52-16.16-15.68-28.238-31.84-28.801C303.52,232,303.121,232,302.641,232H288l-8-16
	c-15.68,10.398-34,16-52.879,16h-33.762c-0.48,0-0.879,0-1.359,0.078c-16.16,0.563-30.32,12.641-31.84,28.801
	c-0.082,1.043-0.16,2.082-0.16,3.121v-43.121C160,196.559,170.238,174.641,186.641,159.199z"/>
<g>
	<path fill="#F2F2F2" d="M360,313.52c7.039,4.16,15.281,6.48,24,6.48c8.801,0,16.961-2.32,24-6.48V336c0,0-8,16-24,16s-24-16-24-16
		V313.52z"/>
	<path fill="#F2F2F2" d="M88,313.52l24,6.48c8.801,0,16.961-2.32,24-6.48V336c0,0-8,16-24,16s-24-16-24-16V313.52z"/>
	<path fill="#F2F2F2" d="M136,313.52c-7.039,4.16-15.199,6.48-24,6.48l-24-6.48c-3.68-2.078-6.961-4.641-9.922-7.598
		C69.359,297.281,64,285.281,64,272v-16h44.719c7.203,0,14.16-2.879,19.281-8c5.121,5.121,12.078,8,19.281,8H160v16
		C160,289.762,150.32,305.281,136,313.52z"/>
	<path fill="#F2F2F2" d="M360,313.52c-14.32-8.238-24-23.758-24-41.52v-16h12.719c7.203,0,14.16-2.879,19.281-8
		c5.121,5.121,12.078,8,19.281,8H432v16c0,13.281-5.359,25.281-14.078,33.922c-2.961,2.957-6.242,5.52-9.922,7.598
		c-7.039,4.16-15.199,6.48-24,6.48C375.281,320,367.039,317.68,360,313.52z"/>
	<path fill="#F2F2F2" d="M216,352v-24l0.719-1.52C240.32,335.602,244.16,336,248,336c11.602,0,22.398-3.52,31.281-9.52L280,328v24
		l-32,24L216,352z"/>
	<path fill="#F2F2F2" d="M336,264v0.078C336,281.68,321.68,296,304,296l-2.16-0.559c1.441-4.883,2.16-10.082,2.16-15.441v-47.922
		c16.16,0.563,30.32,12.641,31.84,28.801C335.922,261.922,336,262.961,336,264z"/>
	<path fill="#F2F2F2" d="M192,280c0,5.359,0.719,10.559,2.16,15.441L192,296c-17.68,0-32-14.32-32-31.922V264
		c0-1.039,0.078-2.078,0.16-3.121c1.52-16.16,15.68-28.238,31.84-28.801V280z"/>
	<path fill="#F2F2F2" d="M304,232.078V280c0,5.359-0.719,10.559-2.16,15.441c-3.68,12.797-11.762,23.758-22.559,31.039
		c-8.883,6-19.68,9.52-31.281,9.52c-3.84,0-7.68-0.398-31.281-9.52c-3.039-2.082-5.758-4.32-8.32-6.879
		c-6.637-6.641-11.598-14.883-14.238-24.16C192.719,290.559,192,285.359,192,280v-47.922c0.48-0.078,0.879-0.078,1.359-0.078h33.762
		C246,232,264.32,226.398,280,216l8,16h14.641C303.121,232,303.52,232,304,232.078z"/>
</g>
<path d="M496,256v-64.191c0-17.801-11.457-33.199-28.504-38.313L416,138.047v-12.152c14.488-10.133,24-26.91,24-45.887V56
	c0-30.879-25.121-56-56-56s-56,25.121-56,56v24c0,18.984,9.512,35.762,24,45.887v12.152l-45.383,13.617
	c-17.031-15.23-38.73-23.656-61.77-23.656c-22.945,0-43.938,8.406-60.16,22.258L144,138.047v-12.152
	c14.488-10.133,24-26.91,24-45.887V56c0-30.879-25.121-56-56-56S56,25.121,56,56v24c0,18.984,9.512,35.762,24,45.887v12.152
	l-51.496,15.449C11.457,158.609,0,174.008,0,191.809V256h16v-64.191c0-10.68,6.871-19.922,17.105-22.984l51.512-15.457
	C89.273,159.414,98.281,168,112,168s22.727-8.586,27.383-14.633l32.809,9.84c-10.414,13.098-17.352,29.039-19.457,46.48
	C142.52,198.832,128.055,192,112,192c-30.879,0-56,25.121-56,56v24c0,18.984,9.512,35.762,24,45.887v12.152l-51.496,15.449
	C11.457,350.609,0,366.008,0,383.809V456h96c4.406,0,8,3.594,8,8v32h288v-32c0-4.406,3.594-8,8-8h96v-72.191
	c0-17.801-11.457-33.199-28.504-38.313L416,330.047v-12.152c14.488-10.133,24-26.91,24-45.887v-24c0-30.879-25.121-56-56-56
	c-15.664,0-29.824,6.48-40,16.879v-7.582c0-15.801-8.586-30.023-21.984-37.543l34.602-10.387C361.273,159.414,370.281,168,384,168
	s22.727-8.586,27.383-14.633l51.52,15.457C473.129,171.887,480,181.129,480,191.809V256H496z M112,16c22.055,0,40,17.945,40,40
	h-36.688c-5.082,0-10.066-2.063-13.656-5.656L96,44.688l-5.656,5.656C86.754,53.938,81.77,56,76.688,56H72
	C72,33.945,89.945,16,112,16z M72,80v-8h4.688c6.969,0,13.625-2,19.313-5.734C101.688,70,108.344,72,115.313,72H152v8
	c0,22.055-17.945,40-40,40S72,102.055,72,80z M112,152c-8.504,0-14.016-7.145-16-10.199v-8.152c5.07,1.512,10.441,2.352,16,2.352
	s10.93-0.84,16-2.359v8.152C126.016,144.863,120.504,152,112,152z M331.902,292.414c4.074,10.348,11.105,19.195,20.098,25.48v12.152
	l-51.488,15.449c-1.695,0.504-3.344,1.16-4.953,1.887L288,345.641v-15.762c8.551-6.871,15.289-15.895,19.426-26.238
	C316.641,302.832,325.281,298.91,331.902,292.414z M248,344c8.488,0,16.586-1.695,24-4.711V348l-24,18l-24-18v-8.711
	C231.414,342.305,239.512,344,248,344z M214.176,360.633l19.504,14.633l-20.063,12.039l-5.074-25.367L214.176,360.633z M239.16,424
	h17.68l6.223,56h-30.125L239.16,424z M258.23,408h-20.469l-4.594-13.777L248,385.328l14.824,8.895L258.23,408z M262.32,375.266
	l19.504-14.633l5.633,1.297l-5.074,25.367L262.32,375.266z M321.762,280.145c-2.77,3.039-6.289,5.168-10.105,6.465
	C311.879,284.434,312,282.23,312,280v-38.281c8.609,3.266,15.016,10.84,15.879,19.891
	C328.535,268.496,326.367,275.07,321.762,280.145z M296,280c0,26.473-21.527,48-48,48s-48-21.527-48-48v-40h27.16
	c17.434,0,34.398-4.352,49.566-12.664L283.055,240H296V280z M184.344,286.609c-3.816-1.297-7.336-3.426-10.105-6.465
	c-4.605-5.066-6.781-11.648-6.125-18.52c0.863-9.059,7.277-16.633,15.887-19.898V280C184,282.23,184.121,284.434,184.344,286.609z
	 M188.574,303.641c4.129,10.344,10.867,19.367,19.426,26.238v15.762l-7.559,1.742c-1.617-0.727-3.258-1.375-4.945-1.887L144,330.047
	v-12.152c8.984-6.285,16.023-15.133,20.098-25.48C170.719,298.91,179.359,302.832,188.574,303.641z M112,208
	c22.055,0,40,17.945,40,40h-4.688c-5.082,0-10.066-2.063-13.656-5.656L128,236.688l-5.656,5.656
	c-3.59,3.594-8.574,5.656-13.656,5.656H72C72,225.945,89.945,208,112,208z M72,272v-8h36.688c6.969,0,13.625-2,19.313-5.734
	C133.688,262,140.344,264,147.313,264H152v8c0,22.055-17.945,40-40,40S72,294.055,72,272z M112,328c5.559,0,10.93-0.84,16-2.359
	v8.152c-1.984,3.07-7.496,10.207-16,10.207s-14.016-7.145-16-10.199v-8.152C101.07,327.16,106.441,328,112,328z M96,440H64v-56H48
	v56H16v-56.191c0-10.68,6.871-19.922,17.105-22.984l51.512-15.457C89.273,351.414,98.281,360,112,360s22.727-8.586,27.383-14.633
	l30.336,9.105l-22.313,5.145C121.848,365.52,104,387.961,104,414.184V424h16v-9.816c0-18.734,12.754-34.758,31.008-38.977
	l41.938-9.68l9.43,47.168l16.738-10.039l4.734,14.207L216.84,480H176v-64h-16v64h-40v-16C120,450.77,109.23,440,96,440z
	 M462.895,360.824C473.129,363.887,480,373.129,480,383.809V440h-32v-56h-16v56h-32c-13.23,0-24,10.77-24,24v16h-40v-64h-16v64
	h-40.84l-7.016-63.137l4.734-14.207l16.738,10.039l9.43-47.168l41.945,9.68C363.246,379.426,376,395.449,376,414.184V424h16v-9.816
	c0-26.223-17.848-48.664-43.406-54.566l-22.313-5.145l30.336-9.105C361.273,351.414,370.281,360,384,360s22.727-8.586,27.383-14.633
	L462.895,360.824z M400,333.801c-1.984,3.063-7.496,10.199-16,10.199c-8.52,0-14.039-7.168-16-10.199v-8.16
	c5.07,1.52,10.441,2.359,16,2.359s10.93-0.84,16-2.359V333.801z M384,312c-22.055,0-40-17.945-40-40v-8h4.688
	c6.969,0,13.625-2,19.313-5.734C373.688,262,380.344,264,387.313,264H424v8C424,294.055,406.055,312,384,312z M384,208
	c22.055,0,40,17.945,40,40h-36.688c-5.082,0-10.066-2.063-13.656-5.656L368,236.688l-5.656,5.656
	c-3.59,3.594-8.574,5.656-13.656,5.656H344C344,225.945,361.945,208,384,208z M328,232.68c-7.078-5.359-15.871-8.68-25.375-8.68
	h-9.68l-9.84-19.68l-7.539,5.023C261.176,218.938,244.441,224,227.16,224h-33.785c-9.504,0-18.297,3.32-25.375,8.68v-11.832
	C168,178.48,202.48,144,244.848,144c20.527,0,39.832,7.992,54.344,22.504l8.488,8.488l1.793,0.602
	C320.551,179.289,328,189.617,328,201.297V232.68z M384,16c22.055,0,40,17.945,40,40h-4.688c-5.082,0-10.066-2.063-13.656-5.656
	L400,44.688l-5.656,5.656C390.754,53.938,385.77,56,380.688,56H344C344,33.945,361.945,16,384,16z M344,80v-8h36.688
	c6.969,0,13.625-2,19.313-5.734C405.688,70,412.344,72,419.313,72H424v8c0,22.055-17.945,40-40,40S344,102.055,344,80z M384,152
	c-8.52,0-14.039-7.168-16-10.199v-8.16c5.07,1.52,10.441,2.359,16,2.359s10.93-0.84,16-2.359v8.152
	C398.016,144.863,392.504,152,384,152z"/>
<path d="M184,0h16v16h-16V0z"/>
<path d="M184,32h16v88h-16V32z"/>
<path d="M296,0h16v16h-16V0z"/>
<path d="M296,32h16v88h-16V32z"/>
<path d="M216,32h16v56h-16V32z"/>
<path d="M216,104h16v16h-16V104z"/>
<path d="M264,32h16v56h-16V32z"/>
<path d="M264,104h16v16h-16V104z"/>
</svg>
