<?xml version="1.0" encoding="utf-8"?>
<!-- Generator: Adobe Illustrator 17.0.0, SVG Export Plug-In . SVG Version: 6.00 Build 0)  -->
<!DOCTYPE svg PUBLIC "-//W3C//DTD SVG 1.1//EN" "http://www.w3.org/Graphics/SVG/1.1/DTD/svg11.dtd">
<svg version="1.1" id="Layer_1" xmlns="http://www.w3.org/2000/svg" xmlns:xlink="http://www.w3.org/1999/xlink" x="0px" y="0px"
	 width="512px" height="512px" viewBox="0 0 512 512" enable-background="new 0 0 512 512" xml:space="preserve">
<path fill="#CECECE" d="M186.48,421.488h139.023v41.906H186.48V421.488z"/>
<path fill="#F2F2F2" d="M478.969,421.488H33.016c-14.09,0-25.516-11.422-25.516-25.516V33.016C7.5,18.926,18.926,7.5,33.016,7.5
	h445.953c14.09,0,25.516,11.426,25.516,25.516v362.957C504.484,410.066,493.059,421.488,478.969,421.488z"/>
<path fill="#CECECE" d="M504.484,33.02v362.953c0,14.094-11.422,25.516-25.512,25.516h-31.168c14.094,0,25.516-11.422,25.516-25.516
	V33.02c0-14.094-11.422-25.516-25.516-25.516h31.168C493.063,7.504,504.484,18.926,504.484,33.02z"/>
<path fill="#F2F2F2" d="M504.484,360.02H7.5v35.953c0,14.094,11.426,25.516,25.516,25.516h445.953
	c14.09,0,25.516-11.422,25.516-25.516V360.02z"/>
<path fill="#CECECE" d="M504.484,360.016v35.957c0,14.094-11.422,25.516-25.512,25.516h-31.168
	c14.094,0,25.516-11.422,25.516-25.516v-35.957H504.484z"/>
<path fill="#F2F2F2" d="M370.555,504.5H141.43c-2.762,0-5-2.242-5-5.004v-16.203c0-10.992,8.906-19.898,19.898-19.898h199.328
	c10.988,0,19.898,8.906,19.898,19.898v16.203C375.555,502.262,373.316,504.5,370.555,504.5z"/>
<path fill="#CECECE" d="M375.555,483.289V499.5c0,2.762-2.242,5.004-5.004,5.004h-17.652v-21.215c0-10.98-8.91-19.895-19.895-19.895
	h22.656C366.645,463.395,375.555,472.301,375.555,483.289z"/>
<path fill="#FE9900" d="M339.805,227.582H172.18c-7.496,0-13.574-6.074-13.574-13.574V77.637c0-7.496,6.078-13.574,13.574-13.574
	h167.625c7.496,0,13.574,6.078,13.574,13.574v136.371C353.379,221.508,347.301,227.582,339.805,227.582z"/>
<path fill="#FE7600" d="M353.379,77.637v136.375c0,7.492-6.082,13.57-13.574,13.57h-22.184c7.504,0,13.582-6.078,13.582-13.57
	V77.637c0-7.5-6.078-13.574-13.582-13.574h22.184C347.297,64.063,353.379,70.137,353.379,77.637z"/>
<path fill="#FE7600" d="M298.141,139.438l-27.758,27.746L233.84,126c-1.91-2.152-5.242-2.254-7.277-0.219l-67.957,67.926v20.301
	c0,7.5,6.078,13.574,13.574,13.574h167.625c7.496,0,13.574-6.074,13.574-13.574v-20.301l-47.961-54.051
	C303.508,137.504,300.18,137.402,298.141,139.438z"/>
<path fill="#FF5400" d="M353.379,193.707v20.305c0,7.492-6.082,13.57-13.574,13.57h-22.184c7.504,0,13.582-6.078,13.582-13.57
	v-45.297L353.379,193.707z"/>
<path d="M478.969,0H33.016C14.813,0,0,14.813,0,33.016v362.957c0,16.5,12.164,30.211,27.992,32.637
	c1.641,0.25,3.316,0.379,5.023,0.379h145.961v26.902h-22.648c-15.109,0-27.398,12.293-27.398,27.402v16.203
	c0,6.895,5.605,12.504,12.5,12.504h131.902c4.141,0,7.5-3.359,7.5-7.5c0-4.145-3.359-7.504-7.5-7.504H143.93v-13.703
	c0-6.836,5.563-12.398,12.398-12.398h199.328c6.836,0,12.398,5.563,12.398,12.398v13.703h-48.383c-4.145,0-7.5,3.359-7.5,7.504
	c0,4.141,3.355,7.5,7.5,7.5h50.883c6.895,0,12.5-5.609,12.5-12.504v-16.203c0-15.109-12.289-27.402-27.398-27.402h-22.648v-26.902
	h145.961c1.707,0,3.383-0.129,5.02-0.379c15.832-2.426,27.996-16.137,27.996-32.637V33.016C511.984,14.813,497.172,0,478.969,0z
	 M318.004,455.895H193.98v-26.902h124.023V455.895z M496.98,395.973c0,9.313-7.102,16.996-16.172,17.922
	c-0.605,0.063-1.219,0.094-1.84,0.094H33.016c-0.621,0-1.234-0.031-1.84-0.094c-9.07-0.926-16.172-8.609-16.172-17.922V367.52
	H496.98V395.973z M496.98,352.52H15.004V33.016c0-9.934,8.078-18.012,18.012-18.012h445.953c9.934,0,18.012,8.082,18.012,18.012
	V352.52z"/>
<path d="M68.008,301.332h50.535c4.141,0,7.5-3.359,7.5-7.5c0-4.145-3.359-7.504-7.5-7.504H68.008c-4.141,0-7.5,3.359-7.5,7.504
	C60.508,297.973,63.867,301.332,68.008,301.332z"/>
<path d="M443.973,286.328h-50.531c-4.145,0-7.5,3.359-7.5,7.504c0,4.141,3.355,7.5,7.5,7.5h50.531c4.145,0,7.504-3.359,7.504-7.5
	C451.477,289.688,448.117,286.328,443.973,286.328z"/>
<path d="M146.09,301.332h114.566c4.145,0,7.5-3.359,7.5-7.5c0-4.145-3.355-7.504-7.5-7.504H146.09c-4.145,0-7.5,3.359-7.5,7.504
	C138.59,297.973,141.945,301.332,146.09,301.332z"/>
<path d="M331.645,301.332h38.82c4.145,0,7.504-3.359,7.504-7.5c0-4.145-3.359-7.504-7.504-7.504h-38.82
	c-4.145,0-7.504,3.359-7.504,7.504C324.141,297.973,327.5,301.332,331.645,301.332z"/>
<path d="M286.289,301.332h15.691c4.145,0,7.504-3.359,7.504-7.5c0-4.145-3.359-7.504-7.504-7.504h-15.691
	c-4.141,0-7.5,3.359-7.5,7.504C278.789,297.973,282.148,301.332,286.289,301.332z"/>
<path d="M89.535,317.969H68.008c-4.141,0-7.5,3.359-7.5,7.504c0,4.141,3.359,7.5,7.5,7.5h21.527c4.141,0,7.5-3.359,7.5-7.5
	C97.035,321.328,93.676,317.969,89.535,317.969z"/>
<path d="M220.602,317.969h-13.109c-4.145,0-7.504,3.359-7.504,7.504c0,4.141,3.359,7.5,7.504,7.5h13.109c4.141,0,7.5-3.359,7.5-7.5
	C228.102,321.328,224.742,317.969,220.602,317.969z"/>
<path d="M180.246,317.969h-64.387c-4.145,0-7.504,3.359-7.504,7.504c0,4.141,3.359,7.5,7.504,7.5h64.387c4.141,0,7.5-3.359,7.5-7.5
	C187.746,321.328,184.387,317.969,180.246,317.969z"/>
<path d="M442.086,317.969h-95.039c-4.145,0-7.504,3.359-7.504,7.504c0,4.141,3.359,7.5,7.504,7.5h95.039
	c4.145,0,7.504-3.359,7.504-7.5C449.59,321.328,446.23,317.969,442.086,317.969z"/>
<path d="M324.258,317.969h-79.867c-4.145,0-7.504,3.359-7.504,7.504c0,4.141,3.359,7.5,7.504,7.5h79.867c4.141,0,7.5-3.359,7.5-7.5
	C331.758,321.328,328.398,317.969,324.258,317.969z"/>
<path d="M126.348,103.133c4.141,0,7.5-3.359,7.5-7.5V85.629c0-4.141-3.359-7.5-7.5-7.5c-4.145,0-7.504,3.359-7.504,7.5v10.004
	C118.844,99.773,122.203,103.133,126.348,103.133z"/>
<path d="M153.188,44.48h10c4.145,0,7.5-3.359,7.5-7.5c0-4.145-3.355-7.504-7.5-7.504h-10c-4.145,0-7.504,3.359-7.504,7.504
	C145.684,41.121,149.043,44.48,153.188,44.48z"/>
<path d="M126.348,183.148c4.141,0,7.5-3.359,7.5-7.504v-10c0-4.145-3.359-7.504-7.5-7.504c-4.145,0-7.504,3.359-7.504,7.504v10
	C118.844,179.789,122.203,183.148,126.348,183.148z"/>
<path d="M124.719,238.426c-3.965,1.199-6.203,5.391-5,9.355c1.539,5.078,5.109,9.441,9.793,11.965
	c1.133,0.609,2.352,0.902,3.551,0.902c2.672,0,5.254-1.43,6.609-3.945c1.969-3.645,0.605-8.195-3.043-10.16
	c-1.223-0.66-2.156-1.797-2.555-3.117C132.871,239.461,128.68,237.227,124.719,238.426z"/>
<path d="M126.348,143.141c4.141,0,7.5-3.359,7.5-7.504v-10c0-4.145-3.359-7.5-7.5-7.5c-4.145,0-7.504,3.355-7.504,7.5v10
	C118.844,139.781,122.203,143.141,126.348,143.141z"/>
<path d="M313.215,44.48h10c4.145,0,7.504-3.359,7.504-7.5c0-4.145-3.359-7.504-7.504-7.504h-10c-4.145,0-7.5,3.359-7.5,7.504
	C305.715,41.121,309.07,44.48,313.215,44.48z"/>
<path d="M273.207,44.48h10.004c4.141,0,7.5-3.359,7.5-7.5c0-4.145-3.359-7.504-7.5-7.504h-10.004c-4.141,0-7.5,3.359-7.5,7.504
	C265.707,41.121,269.066,44.48,273.207,44.48z"/>
<path d="M353.223,44.48h10c4.145,0,7.504-3.359,7.504-7.5c0-4.145-3.359-7.504-7.504-7.504h-10c-4.145,0-7.504,3.359-7.504,7.504
	C345.719,41.121,349.078,44.48,353.223,44.48z"/>
<path d="M193.191,44.48h10.004c4.141,0,7.5-3.359,7.5-7.5c0-4.145-3.359-7.504-7.5-7.504h-10.004c-4.141,0-7.5,3.359-7.5,7.504
	C185.691,41.121,189.051,44.48,193.191,44.48z"/>
<path d="M126.348,63.125c4.141,0,7.5-3.359,7.5-7.5v-5.867c0-0.578,0.09-1.145,0.27-1.68c1.32-3.926-0.797-8.18-4.723-9.496
	c-3.93-1.32-8.184,0.797-9.5,4.727c-0.695,2.074-1.051,4.246-1.051,6.449v5.867C118.844,59.766,122.203,63.125,126.348,63.125z"/>
<path d="M233.199,44.48h10.004c4.141,0,7.5-3.359,7.5-7.5c0-4.145-3.359-7.504-7.5-7.504h-10.004c-4.141,0-7.5,3.359-7.5,7.504
	C225.699,41.121,229.059,44.48,233.199,44.48z"/>
<path d="M126.348,223.152c4.141,0,7.5-3.355,7.5-7.5v-10c0-4.145-3.359-7.504-7.5-7.504c-4.145,0-7.504,3.359-7.504,7.504v10
	C118.844,219.797,122.203,223.152,126.348,223.152z"/>
<path d="M355.355,254.668c0,4.141,3.359,7.5,7.5,7.5h10.004c0.504,0,1-0.051,1.477-0.145c0.492,0.027,0.988,0.004,1.492-0.07
	c5.328-0.785,10.047-3.602,13.281-7.934c2.48-3.316,1.801-8.02-1.516-10.5c-3.32-2.48-8.02-1.797-10.5,1.52
	c-0.848,1.133-2.07,1.867-3.453,2.07c-0.129,0.02-0.258,0.043-0.387,0.066c-0.129-0.008-0.262-0.012-0.395-0.012h-10.004
	C358.715,247.164,355.355,250.523,355.355,254.668z"/>
<path d="M385.637,227.578c4.145,0,7.504-3.355,7.504-7.5v-10c0-4.145-3.359-7.504-7.504-7.504c-4.141,0-7.5,3.359-7.5,7.504v10
	C378.137,224.223,381.496,227.578,385.637,227.578z"/>
<path d="M385.637,187.574c4.145,0,7.504-3.359,7.504-7.504v-10c0-4.145-3.359-7.504-7.504-7.504c-4.141,0-7.5,3.359-7.5,7.504v10
	C378.137,184.215,381.496,187.574,385.637,187.574z"/>
<path d="M385.637,107.559c4.145,0,7.504-3.359,7.504-7.5V90.055c0-4.141-3.359-7.5-7.504-7.5c-4.141,0-7.5,3.359-7.5,7.5v10.004
	C378.137,104.199,381.496,107.559,385.637,107.559z"/>
<path d="M385.637,147.566c4.145,0,7.504-3.359,7.504-7.504v-10c0-4.145-3.359-7.5-7.504-7.5c-4.141,0-7.5,3.355-7.5,7.5v10
	C378.137,144.207,381.496,147.566,385.637,147.566z"/>
<path d="M242.836,247.164c-4.145,0-7.504,3.359-7.504,7.504c0,4.141,3.359,7.5,7.504,7.5h10c4.145,0,7.504-3.359,7.504-7.5
	c0-4.145-3.359-7.504-7.504-7.504H242.836z"/>
<path d="M202.828,247.164c-4.145,0-7.5,3.359-7.5,7.504c0,4.141,3.355,7.5,7.5,7.5h10c4.145,0,7.504-3.359,7.504-7.5
	c0-4.145-3.359-7.504-7.504-7.504H202.828z"/>
<path d="M385.637,67.551c4.145,0,7.504-3.359,7.504-7.5V50.047c0-4.141-3.359-7.5-7.504-7.5c-4.141,0-7.5,3.359-7.5,7.5v10.004
	C378.137,64.191,381.496,67.551,385.637,67.551z"/>
<path d="M340.352,254.668c0-4.145-3.359-7.504-7.5-7.504h-10.004c-4.141,0-7.5,3.359-7.5,7.504c0,4.141,3.359,7.5,7.5,7.5h10.004
	C336.992,262.168,340.352,258.809,340.352,254.668z"/>
<path d="M292.844,262.168c4.145,0,7.5-3.359,7.5-7.5c0-4.145-3.355-7.504-7.5-7.504h-10c-4.145,0-7.504,3.359-7.504,7.504
	c0,4.141,3.359,7.5,7.504,7.5H292.844z"/>
<path d="M162.82,247.164c-4.141,0-7.5,3.359-7.5,7.504c0,4.141,3.359,7.5,7.5,7.5h10.004c4.141,0,7.5-3.359,7.5-7.5
	c0-4.145-3.359-7.504-7.5-7.504H162.82z"/>
<path d="M151.105,77.637v21.004c0,4.145,3.359,7.5,7.5,7.5c4.145,0,7.504-3.355,7.504-7.5V77.637c0-3.348,2.723-6.074,6.07-6.074
	h167.625c3.348,0,6.07,2.727,6.07,6.074v96.313l-34.848-39.27c-2.273-2.566-5.547-4.098-8.977-4.199
	c-3.414-0.105-6.785,1.227-9.211,3.652l-22.129,22.117l-31.262-35.23c-2.277-2.566-5.547-4.098-8.977-4.199
	c-3.438-0.105-6.785,1.23-9.211,3.656l-55.152,55.125v-29.777c0-4.145-3.359-7.504-7.504-7.504c-4.141,0-7.5,3.359-7.5,7.504v68.184
	c0,11.621,9.453,21.074,21.074,21.074h167.625c11.621,0,21.074-9.453,21.074-21.074V77.637c0-11.621-9.453-21.074-21.074-21.074
	H172.18C160.559,56.563,151.105,66.016,151.105,77.637z M345.875,214.008c0,3.352-2.723,6.074-6.07,6.074H172.18
	c-3.348,0-6.07-2.723-6.07-6.074v-17.191l63.879-63.852l44.074,49.668c2.75,3.098,7.492,3.383,10.59,0.633s3.383-7.492,0.633-10.59
	l-4.598-5.184l20.879-20.871l44.309,49.934V214.008z"/>
</svg>
