<?xml version="1.0" encoding="utf-8"?>
<!-- Generator: Adobe Illustrator 17.0.0, SVG Export Plug-In . SVG Version: 6.00 Build 0)  -->
<!DOCTYPE svg PUBLIC "-//W3C//DTD SVG 1.1//EN" "http://www.w3.org/Graphics/SVG/1.1/DTD/svg11.dtd">
<svg version="1.1" id="Layer_1" xmlns="http://www.w3.org/2000/svg" xmlns:xlink="http://www.w3.org/1999/xlink" x="0px" y="0px"
	 width="511.937px" height="511.937px" viewBox="42.031 42.031 511.937 511.937"
	 enable-background="new 42.031 42.031 511.937 511.937" xml:space="preserve">
<g id="surface1">
	<path fill="#DADDDF" d="M397.187,400.386l-22.396-59.725h-85.323l-22.399,59.725h-28.794v17.067h187.709v-17.067H397.187z"/>
	<path fill="#C1C7C9" d="M384.388,366.256l-9.597-25.595h-85.323l-9.6,25.595H384.388z"/>
	<path fill="#FE9900" d="M144.418,50.563c-14.136,0-25.595,11.459-25.595,25.598v213.307h426.614V76.161
		c0-14.139-11.459-25.598-25.598-25.598H144.418z"/>
	<path fill="#F2F2F2" d="M118.823,289.468v25.595c0,14.139,11.459,25.598,25.595,25.598h375.421
		c14.139,0,25.598-11.459,25.598-25.598v-25.595H118.823z"/>
	<path fill="#FE7600" d="M246.807,545.437H50.563V204.146h255.969v281.563L246.807,545.437z"/>
	<path fill="#FF5400" d="M50.563,528.37v17.067h196.244l59.725-59.728V272.402L50.563,528.37z"/>
	<path fill="#FE9900" d="M306.532,485.709l-59.725,59.728v-59.728H306.532z"/>
	<path fill="#5EB3D1" d="M76.161,229.74h34.126v17.067H76.161V229.74z"/>
	<path fill="#5EB3D1" d="M76.161,263.87h34.126v17.067H76.161V263.87z"/>
	<path fill="#5EB3D1" d="M170.016,289.468h17.063v187.709h-17.063V289.468z"/>
	<path fill="#F2F2F2" d="M340.661,443.047h204.775v102.389H340.661V443.047z"/>
	<path fill="#C1C7C9" d="M366.256,502.775h17.067v17.063h-17.067V502.775z"/>
	<path fill="#C1C7C9" d="M502.775,502.775h17.063v17.063h-17.063V502.775z"/>
	<path fill="#C1C7C9" d="M366.256,468.646h17.067v17.067h-17.067V468.646z"/>
	<path fill="#C1C7C9" d="M400.386,468.646h17.067v17.067h-17.067V468.646z"/>
	<path fill="#C1C7C9" d="M434.516,468.646h17.063v17.067h-17.063V468.646z"/>
	<path fill="#C1C7C9" d="M468.646,468.646h17.063v17.067h-17.063V468.646z"/>
	<path fill="#C1C7C9" d="M502.775,468.646h17.063v17.067h-17.063V468.646z"/>
	<path fill="#C1C7C9" d="M400.386,502.775h85.323v17.063h-85.323V502.775z"/>
	<path fill="#2A7FBF" d="M298,152.953h136.516v17.063H298V152.953z"/>
	<path fill="#2A7FBF" d="M332.13,195.611h68.256v17.067H332.13V195.611z"/>
	<path fill="#2A7FBF" d="M366.256,110.288h136.519v17.067H366.256V110.288z"/>
	<path fill="#2A7FBF" d="M417.453,195.611h85.323v17.067h-85.323V195.611z"/>
	<path fill="#2A7FBF" d="M332.13,238.275h102.386v17.063H332.13V238.275z"/>
	<path fill="#2A7FBF" d="M451.579,238.275h51.196v17.063h-51.196V238.275z"/>
	<path fill="#2A7FBF" d="M451.579,152.953h51.196v17.063h-51.196V152.953z"/>
	<path fill="#2A7FBF" d="M298,110.288h51.193v17.067H298V110.288z"/>
	<path fill="#2A7FBF" d="M144.418,76.161h17.067v17.063h-17.067V76.161z"/>
	<path fill="#2A7FBF" d="M178.547,76.161h17.067v17.063h-17.067V76.161z"/>
	<path fill="#2A7FBF" d="M212.677,76.161h17.063v17.063h-17.063V76.161z"/>
	<path fill="#E34B87" d="M172.515,176.049l-25.598-25.598c-3.326-3.336-3.326-8.726,0-12.066l25.598-25.595l12.066,12.066
		l-19.565,19.565l19.565,19.562L172.515,176.049z"/>
	<path fill="#E34B87" d="M252.836,176.049l-12.062-12.066l19.562-19.565l-19.562-19.565l12.062-12.062l25.598,25.595
		c3.33,3.336,3.33,8.729,0,12.066L252.836,176.049z"/>
	<path fill="#E34B87" d="M195.869,176.467l17.083-68.256l16.544,4.144l-17.083,68.253L195.869,176.467z"/>
	<path fill="#F2F2F2" d="M135.886,343.661l42.661-25.598l42.661,25.598l-42.661,25.595L135.886,343.661z"/>
	<path fill="#F2F2F2" d="M135.886,394.854h85.323v42.661h-85.323V394.854z"/>
	<path fill="#F2F2F2" d="M165.748,471.646h25.598c11.784,0,21.331,9.547,21.331,21.331s-9.547,21.331-21.331,21.331h-25.598
		c-11.781,0-21.331-9.547-21.331-21.331S153.967,471.646,165.748,471.646z"/>
	<path fill="#F2F2F2" d="M165.748,249.807h25.598c11.784,0,21.331,9.547,21.331,21.331c0,11.781-9.547,21.331-21.331,21.331h-25.598
		c-11.781,0-21.331-9.55-21.331-21.331C144.418,259.354,153.967,249.807,165.748,249.807z"/>
	<path d="M127.354,76.161c0-9.429,7.637-17.067,17.063-17.067h375.421c9.429,0,17.067,7.637,17.067,17.067v204.772H332.13V298
		h204.772v17.067c0,9.426-7.634,17.063-17.063,17.063H332.13v17.067h36.746l19.2,51.193H332.13v17.063h93.854v-17.063h-19.686
		l-19.197-51.193h132.737c18.849,0,34.13-15.285,34.13-34.13V76.161c0-18.849-15.281-34.13-34.13-34.13H144.418
		c-18.849,0-34.13,15.281-34.13,34.13v102.386h17.067V76.161z"/>
	<path d="M50.563,553.969h196.244c2.261-0.01,4.428-0.904,6.029-2.499l59.728-59.728c0.717-0.724,1.29-1.568,1.705-2.499
		c0.121-0.265,0.188-0.523,0.281-0.794c0.248-0.717,0.392-1.46,0.446-2.217c0-0.181,0.1-0.342,0.1-0.523V204.146
		c0-4.71-3.822-8.532-8.532-8.532H50.563c-4.71,0-8.532,3.822-8.532,8.532v341.291C42.031,550.147,45.853,553.969,50.563,553.969z
		 M255.339,524.84v-30.599h30.596L255.339,524.84z M59.095,212.677H298v264.5h-51.193c-4.71,0-8.532,3.822-8.532,8.532v51.193
		H59.095V212.677z"/>
	<path d="M76.161,229.74h34.126v17.067H76.161V229.74z"/>
	<path d="M76.161,263.87h34.126v17.067H76.161V263.87z"/>
	<path d="M298,152.953h136.516v17.063H298V152.953z"/>
	<path d="M332.13,195.611h68.256v17.067H332.13V195.611z"/>
	<path d="M366.256,110.288h136.519v17.067H366.256V110.288z"/>
	<path d="M417.453,195.611h85.323v17.067h-85.323V195.611z"/>
	<path d="M332.13,238.275h102.386v17.063H332.13V238.275z"/>
	<path d="M451.579,238.275h51.196v17.063h-51.196V238.275z"/>
	<path d="M451.579,152.953h51.196v17.063h-51.196V152.953z"/>
	<path d="M298,110.288h51.193v17.067H298V110.288z"/>
	<path d="M225.604,347.974c4.036-2.432,5.339-7.671,2.918-11.707c-0.717-1.196-1.725-2.194-2.918-2.918l-38.525-23.113V298h4.267
		c16.494,0,29.862-13.372,29.862-29.866c0-16.49-13.369-29.862-29.862-29.862h-25.598c-16.49,0-29.862,13.372-29.862,29.862
		c0,16.494,13.369,29.866,29.862,29.866h4.267v12.236l-38.525,23.113c-4.033,2.432-5.339,7.671-2.918,11.707
		c0.717,1.192,1.725,2.191,2.918,2.918l38.525,23.113v12.236h-34.13c-4.71,0-8.532,3.822-8.532,8.532v42.661
		c0,4.71,3.822,8.532,8.532,8.532h34.13v17.067h-4.267c-16.49,0-29.862,13.369-29.862,29.862s13.369,29.862,29.862,29.862h25.598
		c16.494,0,29.862-13.369,29.862-29.862s-13.369-29.862-29.862-29.862h-4.267v-17.067h34.13c4.71,0,8.532-3.822,8.532-8.532v-42.661
		c0-4.71-3.822-8.532-8.532-8.532h-34.13v-12.236L225.604,347.974z M165.748,280.933c-7.064,0-12.796-5.731-12.796-12.796
		c0-7.064,5.731-12.799,12.796-12.799h25.598c7.064,0,12.799,5.735,12.799,12.799c0,7.064-5.735,12.796-12.799,12.796H165.748z
		 M191.346,477.177c7.064,0,12.799,5.735,12.799,12.799s-5.735,12.799-12.799,12.799h-25.598c-7.064,0-12.796-5.735-12.796-12.799
		s5.731-12.799,12.796-12.799H191.346z M212.677,400.386v25.598h-68.26v-25.598H212.677z M178.547,356.311l-26.084-15.65
		l26.084-15.65l26.084,15.65L178.547,356.311z"/>
	<path d="M144.418,76.161h17.067v17.063h-17.067V76.161z"/>
	<path d="M178.547,76.161h17.067v17.063h-17.067V76.161z"/>
	<path d="M212.677,76.161h17.063v17.063h-17.063V76.161z"/>
	<path d="M340.661,553.969h204.775c4.71,0,8.532-3.822,8.532-8.532V443.047c0-4.71-3.825-8.532-8.532-8.532H340.661
		c-4.71,0-8.532,3.825-8.532,8.532v102.389C332.13,550.147,335.952,553.969,340.661,553.969z M349.193,451.579h187.709v85.323
		H349.193V451.579z"/>
	<path d="M366.256,502.775h17.067v17.063h-17.067V502.775z"/>
	<path d="M502.775,502.775h17.063v17.063h-17.063V502.775z"/>
	<path d="M366.256,468.646h17.067v17.067h-17.067V468.646z"/>
	<path d="M400.386,468.646h17.067v17.067h-17.067V468.646z"/>
	<path d="M434.516,468.646h17.063v17.067h-17.063V468.646z"/>
	<path d="M468.646,468.646h17.063v17.067h-17.063V468.646z"/>
	<path d="M502.775,468.646h17.063v17.067h-17.063V468.646z"/>
	<path d="M400.386,502.775h85.323v17.063h-85.323V502.775z"/>
	<path d="M172.515,112.79l-25.598,25.595c-3.326,3.34-3.326,8.739,0,12.066l25.598,25.598l12.066-12.066l-19.565-19.565
		l19.565-19.565L172.515,112.79z"/>
	<path d="M252.836,176.049l25.598-25.598c3.33-3.336,3.33-8.726,0-12.066l-25.598-25.595l-12.062,12.066l19.562,19.565
		l-19.562,19.562L252.836,176.049z"/>
	<path d="M195.852,176.491l17.063-68.25l16.544,4.137l-17.06,68.25L195.852,176.491z"/>
</g>
</svg>
