<?xml version="1.0" encoding="utf-8"?>
<!-- Generator: Adobe Illustrator 17.0.0, SVG Export Plug-In . SVG Version: 6.00 Build 0)  -->
<!DOCTYPE svg PUBLIC "-//W3C//DTD SVG 1.1//EN" "http://www.w3.org/Graphics/SVG/1.1/DTD/svg11.dtd">
<svg version="1.1" id="Layer_1" xmlns="http://www.w3.org/2000/svg" xmlns:xlink="http://www.w3.org/1999/xlink" x="0px" y="0px"
	 width="511.937px" height="512px" viewBox="0.031 0 511.937 512" enable-background="new 0.031 0 511.937 512"
	 xml:space="preserve">
<path fill="#FE9900" d="M478.449,421.032H32.98c-14.074,0-25.488-11.41-25.488-25.488V32.981c0-14.074,11.414-25.488,25.488-25.488
	h445.469c14.078,0,25.488,11.414,25.488,25.488v362.566C503.938,409.622,492.527,421.032,478.449,421.032z"/>
<path fill="#FE7600" d="M503.941,32.985v362.563c0,14.074-11.41,25.484-25.488,25.484h-31.129c14.074,0,25.484-11.406,25.484-25.484
	V32.985c0-14.078-11.406-25.488-25.484-25.488h31.129C492.531,7.497,503.941,18.907,503.941,32.985z"/>
<path fill="#F2F2F2" d="M504.508,94.438H8.047V32.977c0-14.074,11.406-25.484,25.484-25.484H479.02
	c14.078,0,25.484,11.41,25.484,25.484v61.461H504.508z"/>
<path fill="#CECECE" d="M504.793,32.973v61.465h-31.699V32.973c0-14.066-11.41-25.477-25.488-25.477h31.703
	C493.387,7.497,504.793,18.907,504.793,32.973z"/>
<path fill="#CECECE" d="M186.277,421.032h138.875v41.859H186.277V421.032z"/>
<path fill="#F2F2F2" d="M503.938,359.629H7.492v35.918c0,14.074,11.414,25.484,25.488,25.484h445.469
	c14.078,0,25.488-11.41,25.488-25.484V359.629z"/>
<path fill="#CECECE" d="M503.941,359.629v35.918c0,14.074-11.41,25.484-25.488,25.484h-31.129c14.074,0,25.484-11.406,25.484-25.484
	v-35.918H503.941z"/>
<path fill="#FE9900" d="M69.758,50.754c0,8.004-6.488,14.496-14.496,14.496c-8.004,0-14.496-6.492-14.496-14.496
	c0-8.008,6.492-14.5,14.496-14.5C63.27,36.254,69.758,42.747,69.758,50.754z"/>
<path fill="#FE9900" d="M125.746,50.754c0,8.004-6.492,14.496-14.496,14.496c-8.008,0-14.496-6.492-14.496-14.496
	c0-8.008,6.488-14.5,14.496-14.5C119.254,36.254,125.746,42.747,125.746,50.754z"/>
<path fill="#FF5400" d="M181.734,50.754c0,8.004-6.492,14.496-14.5,14.496c-8.004,0-14.496-6.492-14.496-14.496
	c0-8.008,6.492-14.5,14.496-14.5C175.242,36.254,181.734,42.747,181.734,50.754z"/>
<path fill="#FE7600" d="M69.754,50.758c0,8-6.484,14.484-14.488,14.484c-3.875,0-7.402-1.516-10-4.004
	c7.844-0.172,14.156-6.586,14.156-14.477c0-4.137-1.727-7.855-4.496-10.492c0.109-0.008,0.23-0.008,0.34-0.008
	C63.27,36.262,69.754,42.747,69.754,50.758z"/>
<path fill="#FFB509" d="M125.742,50.758c0,8-6.484,14.484-14.496,14.484c-3.875,0-7.395-1.516-10-4.004
	c7.852-0.172,14.164-6.586,14.164-14.477c0-4.137-1.727-7.855-4.496-10.492c0.113-0.008,0.223-0.008,0.332-0.008
	C119.258,36.262,125.742,42.747,125.742,50.758z"/>
<path fill="#FE9900" d="M181.734,50.758c0,8-6.496,14.484-14.5,14.484c-3.875,0-7.391-1.516-10-4.004
	c7.852-0.172,14.156-6.586,14.156-14.477c0-4.137-1.727-7.855-4.496-10.492c0.109-0.008,0.23-0.008,0.34-0.008
	C175.238,36.262,181.734,42.747,181.734,50.758z"/>
<path fill="#F2F2F2" d="M370.152,503.954H141.277c-2.758,0-4.992-2.234-4.992-4.996V482.77c0-10.977,8.898-19.875,19.875-19.875
	h199.113c10.977,0,19.875,8.898,19.875,19.875v16.188C375.148,501.719,372.914,503.954,370.152,503.954z"/>
<path fill="#F2F2F2" d="M426.684,225.75H85.867c-4.414,0-7.992-3.582-7.992-7.996v-76.469c0-4.414,3.578-7.992,7.992-7.992h340.816
	c4.414,0,7.992,3.578,7.992,7.992v76.469C434.676,222.168,431.098,225.75,426.684,225.75z"/>
<path fill="#CECECE" d="M426.684,225.75h-19.105v-92.457h19.105c4.414,0,7.992,3.578,7.992,7.992v76.469
	C434.676,222.168,431.098,225.75,426.684,225.75z"/>
<path fill="#E7E7E7" d="M439.039,431.942c-10.176,12.129-28.258,13.715-40.391,3.539l-112.621-94.469
	c-12.133-10.176-13.715-28.258-3.539-40.391s28.258-13.715,40.387-3.543L435.5,391.551
	C447.629,401.727,449.215,419.809,439.039,431.942z"/>
<path fill="#CECECE" d="M439.039,431.938c-0.973,1.156-2.02,2.223-3.121,3.18c2.719-10.387-0.531-21.875-9.313-29.23
	l-112.617-94.465c-5.371-4.508-11.906-6.711-18.41-6.711c-6.785,0-13.523,2.395-18.859,7.07c1.039-3.984,2.949-7.805,5.766-11.164
	c5.668-6.762,13.793-10.238,21.973-10.238c6.512,0,13.047,2.191,18.418,6.703l112.621,94.465
	C447.633,401.731,449.215,419.809,439.039,431.938z"/>
<path fill="#FE9900" d="M351.871,277.055c0,59.535-48.262,107.797-107.793,107.797c-59.535,0-107.797-48.262-107.797-107.797
	s48.262-107.797,107.797-107.797C303.609,169.258,351.871,217.52,351.871,277.055z"/>
<path fill="#FF5400" d="M351.875,277.055c0,59.535-48.262,107.797-107.797,107.797c-14.25,0-27.848-2.762-40.301-7.785
	c5.059,0.734,10.238,1.109,15.508,1.109c59.535,0,107.797-48.262,107.797-107.789c0-45.301-27.941-84.07-67.535-100.02
	C311.758,177.86,351.875,222.77,351.875,277.055z"/>
<path fill="#F2F2F2" d="M316.438,277.055c0,39.965-32.398,72.359-72.359,72.359c-39.965,0-72.359-32.395-72.359-72.359
	s32.395-72.359,72.359-72.359C284.039,204.696,316.438,237.09,316.438,277.055z"/>
<path fill="#CECECE" d="M316.441,277.055c0,39.961-32.406,72.363-72.363,72.363c-11.746,0-22.848-2.801-32.652-7.777
	c4.105,0.727,8.316,1.102,12.625,1.102c39.969,0,72.363-32.395,72.363-72.355c0-28.223-16.152-52.668-39.723-64.594
	C290.641,211.762,316.441,241.403,316.441,277.055z"/>
<path d="M244.078,197.204c-44.031,0-79.855,35.82-79.855,79.852s35.824,79.852,79.855,79.852s79.852-35.82,79.852-79.852
	S288.109,197.204,244.078,197.204z M244.078,341.922c-35.77,0-64.867-29.102-64.867-64.867s29.098-64.867,64.867-64.867
	c35.766,0,64.867,29.102,64.867,64.867S279.844,341.922,244.078,341.922z"/>
<path d="M55.262,28.762c-12.125,0-21.988,9.863-21.988,21.988s9.863,21.992,21.988,21.992s21.992-9.867,21.992-21.992
	C77.254,38.629,67.387,28.762,55.262,28.762z M55.262,57.754c-3.859,0-7.004-3.141-7.004-7c0-3.863,3.145-7.004,7.004-7.004
	c3.863,0,7.004,3.141,7.004,7.004C62.266,54.614,59.125,57.754,55.262,57.754z"/>
<path d="M111.25,28.762c-12.125,0-21.992,9.863-21.992,21.988s9.867,21.992,21.992,21.992s21.988-9.867,21.988-21.992
	C133.238,38.629,123.375,28.762,111.25,28.762z M111.25,57.754c-3.863,0-7.004-3.141-7.004-7c0-3.863,3.141-7.004,7.004-7.004
	c3.859,0,7.004,3.141,7.004,7.004C118.254,54.614,115.109,57.754,111.25,57.754z"/>
<path d="M167.234,28.762c-12.125,0-21.988,9.863-21.988,21.988s9.863,21.992,21.988,21.992s21.992-9.867,21.992-21.992
	C189.227,38.629,179.359,28.762,167.234,28.762z M167.234,57.754c-3.859,0-7.004-3.141-7.004-7c0-3.863,3.145-7.004,7.004-7.004
	c3.863,0,7.004,3.141,7.004,7.004C174.238,54.614,171.098,57.754,167.234,57.754z"/>
<path d="M111.25,155.493c-4.141,0-7.496,3.355-7.496,7.496v33.066c0,4.137,3.355,7.492,7.496,7.492c4.137,0,7.492-3.355,7.492-7.492
	v-33.066C118.742,158.848,115.387,155.493,111.25,155.493z"/>
<path d="M479.02,0H32.98C14.797,0,0,14.797,0,32.981v362.566c0,15.91,11.328,29.227,26.344,32.309
	c2.145,0.438,4.363,0.668,6.637,0.668h145.805v26.875H156.16c-15.094,0-27.371,12.277-27.371,27.371v16.188
	c0,6.887,5.602,12.488,12.488,12.488h228.875c6.887,0,12.488-5.602,12.488-12.488V482.77c0-15.094-12.277-27.371-27.367-27.371
	h-22.625v-26.875h46.051l15.137,12.699c6.57,5.512,14.699,8.457,23.176,8.457c1.07,0,2.145-0.047,3.223-0.141
	c9.621-0.844,18.34-5.383,24.547-12.785c2.125-2.531,3.859-5.301,5.199-8.23h28.473c2.273,0,4.492-0.23,6.637-0.668
	c15.016-3.082,26.344-16.398,26.344-32.309v-35.918L512,32.977C512,14.793,497.203,0,479.02,0z M355.273,470.387
	c6.828,0,12.383,5.555,12.383,12.383v13.691H143.777V482.77c0-6.828,5.555-12.383,12.383-12.383H355.273z M193.773,455.399v-26.871
	H317.66v26.871H193.773z M32.98,413.54c-9.922,0-17.996-8.07-17.996-17.992v-28.426h157.215
	c19.723,15.773,44.715,25.223,71.879,25.223c24.441,0,47.43-7.746,66.355-21.082l50.398,42.277H32.98z M433.301,427.122
	c-3.637,4.336-8.742,6.996-14.375,7.488c-5.633,0.496-11.125-1.234-15.461-4.871l-81.152-68.07
	c10.387-9.586,19.043-21.082,25.371-34l83,69.621c4.336,3.637,6.992,8.742,7.488,14.375
	C438.664,417.301,436.934,422.79,433.301,427.122z M496.445,395.547c0,9.922-8.07,17.992-17.996,17.992h-25.215
	c0-1.055-0.039-2.117-0.133-3.18c-0.844-9.625-5.387-18.344-12.785-24.551l-22.277-18.684h78.406V395.547z M496.445,352.137h-96.27
	l-46.559-39.051c1.441-4.383,2.633-8.887,3.551-13.504c0.805-4.063-1.836-8.004-5.895-8.809c-4.059-0.793-8.004,1.836-8.809,5.895
	c-9.266,46.754-50.641,80.688-98.387,80.688c-55.305,0-100.301-44.996-100.301-100.301s44.996-100.301,100.301-100.301
	c23.004,0,44.641,7.574,62.57,21.902c17.406,13.914,29.832,33.438,34.984,54.977c0.961,4.023,5.008,6.512,9.031,5.547
	c4.023-0.961,6.508-5.004,5.543-9.031c-1.383-5.781-3.238-11.43-5.5-16.906h75.977c8.539,0,15.488-6.949,15.488-15.488v-76.469
	c0-8.539-6.949-15.488-15.488-15.488H203.777c-4.141,0-7.496,3.355-7.496,7.496c0,4.137,3.355,7.492,7.496,7.492h222.906
	c0.273,0,0.5,0.223,0.5,0.5v76.469c0,0.277-0.227,0.5-0.5,0.5h-83.477c-7.082-11.91-16.281-22.574-27.203-31.305
	c-20.32-16.238-45.863-25.184-71.926-25.184c-42.105,0-79.008,22.695-99.129,56.488H85.867c-0.273,0-0.5-0.223-0.5-0.5v-76.469
	c0-0.273,0.223-0.5,0.5-0.5h71.367c4.141,0,7.496-3.355,7.496-7.492c0-4.141-3.355-7.496-7.496-7.496H85.867
	c-8.539,0-15.484,6.949-15.484,15.488v76.469c0,8.539,6.945,15.488,15.484,15.488h51.582c-5.574,13.516-8.66,28.309-8.66,43.813
	c0,28.652,10.512,54.895,27.875,75.082H14.984V101.93h481.461V352.137z M496.445,86.942H15.539V32.977
	c0-9.918,8.07-17.988,17.992-17.988h444.918c9.926,0,17.996,8.07,17.996,17.992V86.942z"/>
<g>
	<path fill="#FE9900" d="M273.117,282.201c0-15.935-12.155-28.853-27.147-28.853c-14.995,0-27.147,12.918-27.147,28.853
		s12.152,28.853,27.147,28.853C260.962,311.054,273.117,298.136,273.117,282.201z"/>
	<path fill="#FF5400" d="M273.119,282.204c0,15.933-12.157,28.853-27.152,28.853v-3.236c8.702-4.803,14.652-14.47,14.652-25.617
		c0-2.784-0.369-5.474-1.064-8.02h12.5c0.1,0.362,0.194,0.731,0.275,1.101c0.063,0.275,0.126,0.549,0.182,0.831
		c0.063,0.326,0.124,0.646,0.182,0.977v0.012c0.056,0.333,0.107,0.663,0.148,0.994c0.044,0.338,0.09,0.675,0.119,1.013
		c0.032,0.289,0.058,0.578,0.075,0.87v0.012c0.012,0.158,0.027,0.313,0.032,0.471c0.012,0.231,0.024,0.462,0.032,0.7
		C273.112,281.509,273.119,281.851,273.119,282.204z"/>
	<path fill="#FF5400" d="M245.969,274.182v36.873c-14.993,0-27.15-12.918-27.15-28.853c0-2.782,0.372-5.476,1.064-8.02H245.969z"/>
	<path d="M199.794,297.051c0.51,0.177,1.03,0.26,1.543,0.26c1.941,0,3.756-1.212,4.431-3.149l1.395-4.006l7.813-0.289
		c0.277,1.244,0.615,2.464,1.02,3.649l-5.678,4.317c-0.982,0.746-1.628,1.846-1.805,3.064l-1.373,9.485
		c-0.372,2.566,1.404,4.946,3.97,5.318c0.228,0.032,0.454,0.049,0.678,0.049c2.296,0,4.3-1.684,4.638-4.021l1.098-7.587l2.779-2.111
		c5.802,8.311,15.141,13.717,25.663,13.719c10.534,0,19.883-5.423,25.682-13.749l2.818,2.143l1.098,7.585
		c0.34,2.337,2.344,4.021,4.638,4.021c0.224,0,0.452-0.015,0.68-0.049c2.563-0.372,4.342-2.753,3.97-5.316l-1.373-9.487
		c-0.177-1.217-0.826-2.318-1.805-3.061l-5.726-4.354c0.401-1.178,0.734-2.386,1.008-3.618l7.874,0.294l1.395,4.004
		c0.675,1.936,2.49,3.151,4.431,3.151c0.513,0,1.033-0.085,1.543-0.262c2.447-0.853,3.741-3.528,2.889-5.974l-2.449-7.031
		c-0.634-1.825-2.325-3.073-4.257-3.146l-10.619-0.396c-0.002-0.078-0.012-0.155-0.015-0.233c-0.015-0.25-0.029-0.498-0.049-0.746
		l8.78-3.95c2.029-0.913,3.139-3.124,2.655-5.296l-2.14-9.631c-0.561-2.532-3.064-4.128-5.598-3.564
		c-2.529,0.564-4.125,3.068-3.562,5.598l1.31,5.904l-3.477,1.565c-2.668-7.269-7.668-13.316-14.033-17.126
		c0.972-2.153,1.518-4.538,1.518-7.05c0-9.48-7.711-17.191-17.191-17.191c-9.48,0-17.191,7.711-17.191,17.191
		c0,2.512,0.554,4.893,1.528,7.043c-6.363,3.805-11.363,9.849-14.033,17.111l-3.426-1.543l1.31-5.904
		c0.564-2.529-1.033-5.034-3.562-5.598c-2.529-0.564-5.036,1.033-5.598,3.564l-2.14,9.631c-0.483,2.172,0.627,4.385,2.655,5.296
		l8.722,3.924c-0.019,0.275-0.036,0.549-0.051,0.824c-0.002,0.061-0.01,0.124-0.012,0.187l-10.561,0.391
		c-1.931,0.073-3.62,1.322-4.257,3.146l-2.449,7.031C196.053,293.523,197.345,296.198,199.794,297.051z M268.207,278.873
		c0.012,0.092,0.022,0.185,0.032,0.275c0.044,0.372,0.08,0.741,0.107,1.115c0.012,0.146,0.024,0.292,0.032,0.44
		c0.138,2.451-0.041,4.922-0.598,7.315c-0.566,2.432-1.327,4.412-2.483,6.477c-0.18,0.318-0.369,0.641-0.569,0.967
		c-0.663,1.084-1.263,1.922-2.08,2.896c-2.85,3.409-6.754,6.054-11.062,7.24c-0.044,0.012-0.087,0.019-0.131,0.032
		c-0.262,0.073-0.527,0.138-0.794,0.199v-26.955H268.207z M245.969,238.162c4.305,0,7.806,3.503,7.806,7.808
		c0,1.261-0.306,2.449-0.841,3.506c-2.245-0.53-4.572-0.819-6.968-0.819c-2.393,0-4.721,0.289-6.965,0.819
		c-0.532-1.057-0.841-2.245-0.841-3.506C238.161,241.665,241.664,238.162,245.969,238.162z M245.969,258.04
		c8.049,0,15.119,4.584,19.084,11.45h-38.17C230.848,262.624,237.92,258.04,245.969,258.04z M223.596,280.214
		c0.024-0.338,0.056-0.675,0.097-1.011c0.012-0.109,0.024-0.221,0.039-0.33h17.543v26.955c-0.279-0.063-0.556-0.134-0.833-0.209
		c-0.029-0.007-0.058-0.012-0.087-0.022c-2.354-0.654-3.999-1.407-6.057-2.762c-6.771-4.456-10.787-12.585-10.785-20.634
		C223.513,281.533,223.545,280.88,223.596,280.214z"/>
</g>
</svg>
