<?xml version="1.0" encoding="utf-8"?>
<!-- Generator: Adobe Illustrator 17.0.0, SVG Export Plug-In . SVG Version: 6.00 Build 0)  -->
<!DOCTYPE svg PUBLIC "-//W3C//DTD SVG 1.1//EN" "http://www.w3.org/Graphics/SVG/1.1/DTD/svg11.dtd">
<svg version="1.1" id="Layer_1" xmlns="http://www.w3.org/2000/svg" xmlns:xlink="http://www.w3.org/1999/xlink" x="0px" y="0px"
	 width="527.244px" height="527.244px" viewBox="-143.152 -93.542 527.244 527.244"
	 enable-background="new -143.152 -93.542 527.244 527.244" xml:space="preserve">
<g>
	<path fill="#F2F2F2" d="M245.987-57.837v455.839c0,13.874-11.248,25.12-25.12,25.12H-96.121c-13.874,0-25.12-11.247-25.12-25.12
		V-57.837c0-13.885,11.248-25.133,25.12-25.133h316.987C234.739-82.97,245.987-71.721,245.987-57.837z"/>
	<path fill="#ECECEC" d="M245.987,53.233v344.77c0,13.874-11.248,25.12-25.12,25.12h-80.554
		c-8.202-10.947-13.069-24.534-13.069-39.245V118.859c0-36.188,29.437-65.625,65.613-65.625L245.987,53.233L245.987,53.233
		L245.987,53.233z"/>
	<rect x="-121.242" y="-3.605" fill="#FE9900" width="367.23" height="341.062"/>
	<g>
		<path fill="#FE7600" d="M245.987,53.233v284.228H127.243V118.859c0-36.188,29.437-65.625,65.613-65.625L245.987,53.233
			L245.987,53.233z"/>
		<rect x="-121.248" y="308.455" fill="#FE7600" width="367.241" height="29.003"/>
		<rect x="-121.248" y="-3.605" fill="#FE7600" width="367.241" height="29.003"/>
	</g>
	<path fill="#F2F2F2" d="M362.187,118.861v265.022c0,21.673-17.567,39.241-39.241,39.241H192.861
		c-21.673,0-39.241-17.567-39.241-39.241V118.861c0-21.673,17.567-39.241,39.241-39.241h130.085
		C344.619,79.619,362.187,97.187,362.187,118.861z"/>
	<rect x="153.624" y="133.483" fill="#FE7600" width="208.567" height="231.495"/>
	<g>
		<rect x="153.624" y="345.292" fill="#FF5400" width="208.567" height="19.686"/>
		<rect x="153.624" y="133.483" fill="#FF5400" width="208.567" height="19.686"/>
	</g>
	<path d="M101.018-47.768H23.731c-4.71,0-8.53,3.818-8.53,8.53s3.819,8.53,8.53,8.53h77.287c4.71,0,8.53-3.818,8.53-8.53
		S105.728-47.768,101.018-47.768z"/>
	<path d="M176.975-47.768h-10.359c-4.71,0-8.53,3.818-8.53,8.53s3.819,8.53,8.53,8.53h10.359c4.71,0,8.53-3.818,8.53-8.53
		S181.686-47.768,176.975-47.768z"/>
	<path d="M86.825,373.144H37.924c-4.71,0-8.53,3.818-8.53,8.53s3.819,8.53,8.53,8.53h48.901c4.71,0,8.53-3.818,8.53-8.53
		C95.354,376.961,91.535,373.144,86.825,373.144z"/>
	<path d="M297.718,179.887c-3.331-3.33-8.732-3.33-12.062,0l-72.131,72.132c-3.331,3.332-3.331,8.732,0,12.063
		c1.664,1.665,3.849,2.497,6.032,2.497s4.366-0.833,6.032-2.497l72.131-72.132C301.05,188.619,301.05,183.219,297.718,179.887z"/>
	<path d="M285.656,229.11l-72.131,72.131c-3.331,3.332-3.331,8.732,0,12.063c1.665,1.665,3.849,2.497,6.032,2.497
		s4.366-0.833,6.032-2.497l72.131-72.131c3.331-3.332,3.331-8.732,0-12.063C294.388,225.781,288.987,225.781,285.656,229.11z"/>
	<path d="M322.944,71.09h-68.419v-128.93c-0.002-18.557-15.1-33.654-33.655-33.654H-96.121c-18.557,0-33.654,15.097-33.654,33.654
		v293.769c0,4.711,3.819,8.53,8.53,8.53s8.53-3.818,8.53-8.53V4.929h350.18V71.09H192.86c-26.342,0-47.772,21.431-47.772,47.772
		v210.067h-257.804v-41.644c0-4.711-3.819-8.53-8.53-8.53s-8.53,3.818-8.53,8.53V398c0,18.557,15.098,33.655,33.654,33.655h288.239
		v-0.019c0.248,0.003,0.492,0.019,0.741,0.019h130.083c26.342,0,47.772-21.431,47.772-47.772v-52.957c0-4.711-3.819-8.53-8.53-8.53
		s-8.53,3.818-8.53,8.53v25.525H162.148V142.016h191.509v143.258c0,4.711,3.819,8.53,8.53,8.53s8.53-3.818,8.53-8.53V118.862
		C370.715,92.52,349.284,71.09,322.944,71.09z M-112.716-12.131v-45.71c0-9.151,7.445-16.596,16.596-16.596h316.99
		c9.151,0,16.596,7.445,16.596,16.596v45.71C237.464-12.131-112.716-12.131-112.716-12.131z M-112.716,397.999v-52.011h257.803
		v37.893c0,11.687,4.225,22.401,11.219,30.712H-96.121C-105.271,414.593-112.716,407.149-112.716,397.999z M353.656,373.508v10.373
		c0,16.935-13.779,30.712-30.712,30.712H192.861c-16.935,0-30.712-13.778-30.712-30.712v-10.373H353.656z M162.148,124.958v-6.096
		c0-16.935,13.779-30.712,30.712-30.712h130.083c16.935,0,30.712,13.778,30.712,30.712v6.096H162.148z"/>
	<path d="M290.251,100.769h-64.701c-4.71,0-8.53,3.818-8.53,8.53c0,4.711,3.819,8.53,8.53,8.53h64.701c4.71,0,8.53-3.818,8.53-8.53
		C298.781,104.587,294.963,100.769,290.251,100.769z"/>
	<path d="M246.346,403.519h23.109c4.71,0,8.53-3.818,8.53-8.53c0-4.711-3.819-8.53-8.53-8.53h-23.109c-4.71,0-8.53,3.818-8.53,8.53
		C237.816,399.701,241.635,403.519,246.346,403.519z"/>
	<path d="M26.306,180.498c2.183,0,4.366-0.833,6.032-2.497l72.131-72.131c3.331-3.332,3.331-8.732,0-12.063
		c-3.331-3.33-8.732-3.33-12.062,0l-72.131,72.131c-3.331,3.332-3.331,8.732,0,12.063C21.94,179.665,24.122,180.498,26.306,180.498z
		"/>
	<path d="M20.275,227.223c1.665,1.664,3.849,2.497,6.032,2.497s4.366-0.833,6.032-2.497l72.131-72.131
		c3.331-3.332,3.331-8.732,0-12.063c-3.331-3.33-8.732-3.33-12.062,0L20.277,215.16C16.943,218.491,16.943,223.891,20.275,227.223z"
		/>
</g>
</svg>
